# xmcd
#
# Track frame offsets: 
#        150
#        7647
#        23810
#        43575
#        59927
#        79787
#        97645
#        115782
#        138437
#        164107
#        182260
#        206220
#        225270
#        249480
#        261617
#        285262
#        306457
#        327415
#
# Disc length: 4399 seconds
#
# Revision: 0
# Processed by: cddbd v1.5.2PL0 Copyright (c) Steve Scherf et al.
# Submitted via: ExactAudioCopy v0.95a5
#
DISCID=f3112d12
DTITLE=Bam Powell and The Troublemakers - Bam Powell and The Troublemakers
DYEAR=2000
DGENRE=
TTITLE0=Funky drummer sinfonia part II
TTITLE1=Home sweet home
TTITLE2=Habits
TTITLE3=Destined to be a four lane
TTITLE4=Gotcha
TTITLE5=Don't dance with the Devil
TTITLE6=Thugs
TTITLE7=Have you had enough
TTITLE8=Jamaica bound
TTITLE9=Cold bars
TTITLE10=Movin again
TTITLE11=Remember
TTITLE12=Possum in the city
TTITLE13=The touch
TTITLE14=I like skin
TTITLE15=Talk to me
TTITLE16=Why don't you let me go
TTITLE17=Funky drummer reprise
EXTD=
EXTT0=
EXTT1=
EXTT2=
EXTT3=
EXTT4=
EXTT5=
EXTT6=
EXTT7=
EXTT8=
EXTT9=
EXTT10=
EXTT11=
EXTT12=
EXTT13=
EXTT14=
EXTT15=
EXTT16=
EXTT17=
PLAYORDER=
